<svg width="372" height="3783" viewBox="0 0 372 3783" fill="none" xmlns="http://www.w3.org/2000/svg">
<path d="M132.864 249.171L127.845 147.887L265.172 0.521973H364.632L227.761 148.799L177.575 201.266L132.864 249.171ZM52.1095 319.888V0.521973H141.532V319.888H52.1095ZM266.541 319.888L162.519 188.036L221.374 125.075L371.476 319.888H266.541Z" fill="#132C50"/>
<path d="M185.983 902.275C160.434 902.275 136.862 898.169 115.266 889.957C93.6711 881.745 74.8133 870.187 58.6929 855.283C42.8767 840.075 30.5582 822.434 21.7377 802.359C12.9171 782.285 8.50678 760.234 8.50678 736.205C8.50678 712.177 12.9171 690.125 21.7377 670.051C30.5582 649.976 42.8767 632.487 58.6929 617.583C74.8133 602.375 93.6711 590.665 115.266 582.453C136.862 574.241 160.434 570.135 185.983 570.135C211.837 570.135 235.409 574.241 256.7 582.453C278.295 590.665 297.001 602.375 312.817 617.583C328.633 632.487 340.952 649.976 349.772 670.051C358.897 690.125 363.459 712.177 363.459 736.205C363.459 760.234 358.897 782.437 349.772 802.816C340.952 822.89 328.633 840.379 312.817 855.283C297.001 870.187 278.295 881.745 256.7 889.957C235.409 898.169 211.837 902.275 185.983 902.275ZM185.983 827.453C198.149 827.453 209.403 825.323 219.745 821.065C230.39 816.807 239.515 810.724 247.119 802.816C255.027 794.603 261.11 784.87 265.368 773.617C269.931 762.363 272.212 749.892 272.212 736.205C272.212 722.214 269.931 709.743 265.368 698.794C261.11 687.54 255.027 677.959 247.119 670.051C239.515 661.838 230.39 655.603 219.745 651.345C209.403 647.087 198.149 644.958 185.983 644.958C173.817 644.958 162.411 647.087 151.765 651.345C141.424 655.603 132.299 661.838 124.391 670.051C116.787 677.959 110.704 687.54 106.142 698.794C101.883 709.743 99.7542 722.214 99.7542 736.205C99.7542 749.892 101.883 762.363 106.142 773.617C110.704 784.87 116.787 794.603 124.391 802.816C132.299 810.724 141.424 816.807 151.765 821.065C162.411 825.323 173.817 827.453 185.983 827.453Z" fill="#132C50"/>
<path d="M0.203613 1471.89V1152.52H74.5703L206.879 1369.69H167.643L296.302 1152.52H370.668L371.581 1471.89H288.546L287.633 1278.9H301.776L205.51 1440.41H165.362L66.358 1278.9H83.6951V1471.89H0.203613Z" fill="#132C50"/>
<path d="M140.55 2047.89V1728.52H230.885V2047.89H140.55Z" fill="#132C50"/>
<path d="M34.065 2623.89V2304.52H108.432L284.539 2517.13H249.409V2304.52H337.919V2623.89H263.552L87.4447 2411.28H122.575V2623.89H34.065Z" fill="#132C50"/>
<path d="M156.775 3020.59H304.14V3090.39H156.775V3020.59ZM163.162 3199.89H72.8273V2880.52H323.302V2950.33H163.162V3199.89Z" fill="#132C50"/>
<path d="M185.983 3782.28C160.434 3782.28 136.862 3778.17 115.266 3769.96C93.6711 3761.74 74.8133 3750.19 58.6929 3735.28C42.8767 3720.08 30.5582 3702.43 21.7377 3682.36C12.9171 3662.28 8.50678 3640.23 8.50678 3616.21C8.50678 3592.18 12.9171 3570.12 21.7377 3550.05C30.5582 3529.98 42.8767 3512.49 58.6929 3497.58C74.8133 3482.38 93.6711 3470.67 115.266 3462.45C136.862 3454.24 160.434 3450.13 185.983 3450.13C211.837 3450.13 235.409 3454.24 256.7 3462.45C278.295 3470.67 297.001 3482.38 312.817 3497.58C328.633 3512.49 340.952 3529.98 349.772 3550.05C358.897 3570.12 363.459 3592.18 363.459 3616.21C363.459 3640.23 358.897 3662.44 349.772 3682.82C340.952 3702.89 328.633 3720.38 312.817 3735.28C297.001 3750.19 278.295 3761.74 256.7 3769.96C235.409 3778.17 211.837 3782.28 185.983 3782.28ZM185.983 3707.45C198.149 3707.45 209.403 3705.32 219.745 3701.07C230.39 3696.81 239.515 3690.72 247.119 3682.82C255.027 3674.6 261.11 3664.87 265.368 3653.62C269.931 3642.36 272.212 3629.89 272.212 3616.21C272.212 3602.21 269.931 3589.74 265.368 3578.79C261.11 3567.54 255.027 3557.96 247.119 3550.05C239.515 3541.84 230.39 3535.6 219.745 3531.34C209.403 3527.09 198.149 3524.96 185.983 3524.96C173.817 3524.96 162.411 3527.09 151.765 3531.34C141.424 3535.6 132.299 3541.84 124.391 3550.05C116.787 3557.96 110.704 3567.54 106.142 3578.79C101.883 3589.74 99.7542 3602.21 99.7542 3616.21C99.7542 3629.89 101.883 3642.36 106.142 3653.62C110.704 3664.87 116.787 3674.6 124.391 3682.82C132.299 3690.72 141.424 3696.81 151.765 3701.07C162.411 3705.32 173.817 3707.45 185.983 3707.45Z" fill="#132C50"/>
</svg>
